<mxfile host="app.diagrams.net" modified="2024-04-18T20:03:52.256Z" agent="Mozilla/5.0 (X11; Linux x86_64; rv:109.0) Gecko/20100101 Firefox/115.0" version="24.2.5" etag="H25u2c8XpfDW9SXPKvlW" type="github">
  <diagram name="PÃ¡gina-1" id="2AobtgiIcRS66JoWMTHV">
    <mxGraphModel>
      <root>
        <mxCell id="0" />
        <mxCell id="1" parent="0" />
      </root>
    </mxGraphModel>
  </diagram>
</mxfile>
